<?xml version="1.0" encoding="UTF-8" standalone="no"?><!-- Generator: Gravit.io --><svg xmlns="http://www.w3.org/2000/svg" xmlns:xlink="http://www.w3.org/1999/xlink" style="isolation:isolate" viewBox="0 0 9921.26 2834.646" width="9921.26pt" height="2834.646pt"><defs><clipPath id="_clipPath_sLEztmqdBBGP8HAlUvIgwmisC9TNsh9L"><rect width="9921.26" height="2834.646"/></clipPath></defs><g clip-path="url(#_clipPath_sLEztmqdBBGP8HAlUvIgwmisC9TNsh9L)"><rect width="9921.26" height="2834.646" style="fill:rgb(0,0,0)"/><g style="isolation:isolate"><g><g><path d=" M 6161.324 1699.236 L 6161.324 1699.236 L 6161.324 1718.856 L 6113.88 1718.856 L 6113.88 1699.236 L 6113.88 1699.236 Q 6113.88 1696.739 6111.74 1696.739 L 6111.74 1696.739 L 5954.067 1696.739 L 5954.067 1696.739 Q 5951.57 1696.739 5951.57 1699.236 L 5951.57 1699.236 L 5951.57 1752.031 L 5951.57 1752.031 Q 5951.57 1754.528 5954.067 1754.528 L 5954.067 1754.528 L 6111.74 1754.528 L 6111.74 1754.528 Q 6132.073 1754.528 6146.699 1768.975 L 6146.699 1768.975 L 6146.699 1768.975 Q 6161.324 1783.423 6161.324 1804.113 L 6161.324 1804.113 L 6161.324 1856.908 L 6161.324 1856.908 Q 6161.324 1877.598 6146.699 1892.045 L 6146.699 1892.045 L 6146.699 1892.045 Q 6132.073 1906.493 6111.74 1906.493 L 6111.74 1906.493 L 5954.067 1906.493 L 5954.067 1906.493 Q 5933.377 1906.493 5918.93 1892.045 L 5918.93 1892.045 L 5918.93 1892.045 Q 5904.483 1877.598 5904.483 1856.908 L 5904.483 1856.908 L 5904.483 1837.288 L 5951.57 1837.288 L 5951.57 1856.908 L 5951.57 1856.908 Q 5951.57 1859.405 5954.067 1859.405 L 5954.067 1859.405 L 6111.74 1859.405 L 6111.74 1859.405 Q 6113.88 1859.405 6113.88 1856.908 L 6113.88 1856.908 L 6113.88 1804.113 L 6113.88 1804.113 Q 6113.88 1801.616 6111.74 1801.616 L 6111.74 1801.616 L 5954.067 1801.616 L 5954.067 1801.616 Q 5933.377 1801.616 5918.93 1787.168 L 5918.93 1787.168 L 5918.93 1787.168 Q 5904.483 1772.721 5904.483 1752.031 L 5904.483 1752.031 L 5904.483 1699.236 L 5904.483 1699.236 Q 5904.483 1678.546 5918.93 1664.098 L 5918.93 1664.098 L 5918.93 1664.098 Q 5933.377 1649.651 5954.067 1649.651 L 5954.067 1649.651 L 6111.74 1649.651 L 6111.74 1649.651 Q 6132.073 1649.651 6146.699 1664.098 L 6146.699 1664.098 L 6146.699 1664.098 Q 6161.324 1678.546 6161.324 1699.236 Z  M 6318.402 1906.493 L 6318.402 1650.008 L 6525.302 1650.008 L 6525.302 1650.008 Q 6545.992 1650.008 6560.618 1664.634 L 6560.618 1664.634 L 6560.618 1664.634 Q 6575.244 1679.259 6575.244 1699.593 L 6575.244 1699.593 L 6575.244 1768.797 L 6575.244 1768.797 Q 6575.244 1789.13 6560.618 1803.756 L 6560.618 1803.756 L 6560.618 1803.756 Q 6545.992 1818.382 6525.302 1818.382 L 6525.302 1818.382 L 6366.56 1818.739 L 6365.49 1818.382 L 6365.49 1906.493 L 6318.402 1906.493 L 6318.402 1906.493 Z  M 6527.8 1768.797 L 6527.8 1768.797 L 6527.8 1699.593 L 6527.8 1699.593 Q 6527.8 1697.095 6525.302 1697.095 L 6525.302 1697.095 L 6367.987 1697.095 L 6367.987 1697.095 Q 6365.49 1697.095 6365.49 1699.593 L 6365.49 1699.593 L 6365.49 1768.797 L 6365.49 1768.797 Q 6365.49 1771.294 6367.987 1771.294 L 6367.987 1771.294 L 6525.302 1771.294 L 6525.302 1771.294 Q 6527.8 1771.294 6527.8 1768.797 Z  M 6769.778 1649.651 L 6769.778 1649.651 L 6927.093 1649.651 L 6927.093 1649.651 Q 6947.783 1649.651 6962.409 1664.098 L 6962.409 1664.098 L 6962.409 1664.098 Q 6977.035 1678.546 6977.035 1699.236 L 6977.035 1699.236 L 6977.035 1906.493 L 6929.59 1906.493 L 6929.59 1820.165 L 6767.281 1820.165 L 6767.281 1906.493 L 6720.193 1906.493 L 6720.193 1699.236 L 6720.193 1699.236 Q 6720.193 1678.546 6734.64 1664.098 L 6734.64 1664.098 L 6734.64 1664.098 Q 6749.088 1649.651 6769.778 1649.651 Z  M 6767.281 1699.236 L 6767.281 1773.078 L 6929.59 1773.078 L 6929.59 1699.236 L 6929.59 1699.236 Q 6929.59 1696.739 6927.093 1696.739 L 6927.093 1696.739 L 6769.778 1696.739 L 6769.778 1696.739 Q 6767.281 1696.739 6767.281 1699.236 L 6767.281 1699.236 L 6767.281 1699.236 Z  M 7392.738 1649.651 L 7392.738 1696.739 L 7186.194 1696.739 L 7186.194 1696.739 Q 7183.697 1696.739 7183.697 1699.236 L 7183.697 1699.236 L 7183.697 1856.908 L 7183.697 1856.908 Q 7183.697 1859.405 7186.194 1859.405 L 7186.194 1859.405 L 7392.738 1859.405 L 7392.738 1906.493 L 7186.194 1906.493 L 7186.194 1906.493 Q 7165.504 1906.493 7151.057 1892.045 L 7151.057 1892.045 L 7151.057 1892.045 Q 7136.609 1877.598 7136.609 1856.908 L 7136.609 1856.908 L 7136.609 1699.236 L 7136.609 1699.236 Q 7136.609 1678.546 7151.057 1664.098 L 7151.057 1664.098 L 7151.057 1664.098 Q 7165.504 1649.651 7186.194 1649.651 L 7186.194 1649.651 L 7392.738 1649.651 L 7392.738 1649.651 Z  M 7549.459 1649.651 L 7785.61 1649.651 L 7785.61 1696.739 L 7596.903 1696.739 L 7596.903 1754.528 L 7748.868 1754.528 L 7748.868 1801.616 L 7596.903 1801.616 L 7596.903 1859.405 L 7785.61 1859.405 L 7785.61 1906.493 L 7549.459 1906.493 L 7549.459 1649.651 L 7549.459 1649.651 Z  M 8195.963 1699.236 L 8195.963 1699.236 L 8195.963 1718.856 L 8148.518 1718.856 L 8148.518 1699.236 L 8148.518 1699.236 Q 8148.518 1696.739 8146.378 1696.739 L 8146.378 1696.739 L 7988.706 1696.739 L 7988.706 1696.739 Q 7986.209 1696.739 7986.209 1699.236 L 7986.209 1699.236 L 7986.209 1752.031 L 7986.209 1752.031 Q 7986.209 1754.528 7988.706 1754.528 L 7988.706 1754.528 L 8146.378 1754.528 L 8146.378 1754.528 Q 8166.711 1754.528 8181.337 1768.975 L 8181.337 1768.975 L 8181.337 1768.975 Q 8195.963 1783.423 8195.963 1804.113 L 8195.963 1804.113 L 8195.963 1856.908 L 8195.963 1856.908 Q 8195.963 1877.598 8181.337 1892.045 L 8181.337 1892.045 L 8181.337 1892.045 Q 8166.711 1906.493 8146.378 1906.493 L 8146.378 1906.493 L 7988.706 1906.493 L 7988.706 1906.493 Q 7968.016 1906.493 7953.568 1892.045 L 7953.568 1892.045 L 7953.568 1892.045 Q 7939.121 1877.598 7939.121 1856.908 L 7939.121 1856.908 L 7939.121 1837.288 L 7986.209 1837.288 L 7986.209 1856.908 L 7986.209 1856.908 Q 7986.209 1859.405 7988.706 1859.405 L 7988.706 1859.405 L 8146.378 1859.405 L 8146.378 1859.405 Q 8148.518 1859.405 8148.518 1856.908 L 8148.518 1856.908 L 8148.518 1804.113 L 8148.518 1804.113 Q 8148.518 1801.616 8146.378 1801.616 L 8146.378 1801.616 L 7988.706 1801.616 L 7988.706 1801.616 Q 7968.016 1801.616 7953.568 1787.168 L 7953.568 1787.168 L 7953.568 1787.168 Q 7939.121 1772.721 7939.121 1752.031 L 7939.121 1752.031 L 7939.121 1699.236 L 7939.121 1699.236 Q 7939.121 1678.546 7953.568 1664.098 L 7953.568 1664.098 L 7953.568 1664.098 Q 7968.016 1649.651 7988.706 1649.651 L 7988.706 1649.651 L 8146.378 1649.651 L 8146.378 1649.651 Q 8166.711 1649.651 8181.337 1664.098 L 8181.337 1664.098 L 8181.337 1664.098 Q 8195.963 1678.546 8195.963 1699.236 Z  M 3210.261 1754.528 L 3210.261 1649.651 L 3257.348 1649.651 L 3257.348 1906.493 L 3210.261 1906.493 L 3210.261 1801.616 L 3041.887 1801.616 L 3041.887 1906.493 L 2994.799 1906.493 L 2994.799 1649.651 L 3041.887 1649.651 L 3041.887 1754.528 L 3210.261 1754.528 L 3210.261 1754.528 Z  M 3467.221 1649.651 L 3467.221 1649.651 L 3624.537 1649.651 L 3624.537 1649.651 Q 3645.227 1649.651 3659.853 1664.098 L 3659.853 1664.098 L 3659.853 1664.098 Q 3674.478 1678.546 3674.478 1699.236 L 3674.478 1699.236 L 3674.478 1906.493 L 3627.034 1906.493 L 3627.034 1820.165 L 3464.724 1820.165 L 3464.724 1906.493 L 3417.637 1906.493 L 3417.637 1699.236 L 3417.637 1699.236 Q 3417.637 1678.546 3432.084 1664.098 L 3432.084 1664.098 L 3432.084 1664.098 Q 3446.531 1649.651 3467.221 1649.651 Z  M 3464.724 1699.236 L 3464.724 1773.078 L 3627.034 1773.078 L 3627.034 1699.236 L 3627.034 1699.236 Q 3627.034 1696.739 3624.537 1696.739 L 3624.537 1696.739 L 3467.221 1696.739 L 3467.221 1696.739 Q 3464.724 1696.739 3464.724 1699.236 L 3464.724 1699.236 L 3464.724 1699.236 Z  M 4090.181 1649.651 L 4090.181 1696.739 L 3883.638 1696.739 L 3883.638 1696.739 Q 3881.141 1696.739 3881.141 1699.236 L 3881.141 1699.236 L 3881.141 1856.908 L 3881.141 1856.908 Q 3881.141 1859.405 3883.638 1859.405 L 3883.638 1859.405 L 4090.181 1859.405 L 4090.181 1906.493 L 3883.638 1906.493 L 3883.638 1906.493 Q 3862.948 1906.493 3848.501 1892.045 L 3848.501 1892.045 L 3848.501 1892.045 Q 3834.053 1877.598 3834.053 1856.908 L 3834.053 1856.908 L 3834.053 1699.236 L 3834.053 1699.236 Q 3834.053 1678.546 3848.501 1664.098 L 3848.501 1664.098 L 3848.501 1664.098 Q 3862.948 1649.651 3883.638 1649.651 L 3883.638 1649.651 L 4090.181 1649.651 L 4090.181 1649.651 Z  M 4354.633 1754.528 L 4442.388 1649.651 L 4494.113 1649.651 L 4494.113 1662.136 L 4397.084 1778.072 L 4494.113 1894.007 L 4494.113 1906.493 L 4442.388 1906.493 L 4354.633 1801.616 L 4293.99 1801.616 L 4293.99 1906.493 L 4246.546 1906.493 L 4246.546 1649.651 L 4293.99 1649.651 L 4293.99 1754.528 L 4354.633 1754.528 L 4354.633 1754.528 Z  M 4696.851 1906.493 L 4649.763 1906.493 L 4649.763 1649.651 L 4696.851 1649.651 L 4696.851 1906.493 L 4696.851 1906.493 Z  M 4898.163 1649.651 L 5056.192 1838.002 L 5056.192 1649.651 L 5103.636 1649.651 L 5103.636 1906.493 L 5052.268 1906.493 L 4893.882 1718.142 L 4893.882 1906.493 L 4846.794 1906.493 L 4846.794 1649.651 L 4898.163 1649.651 L 4898.163 1649.651 Z  M 5519.339 1699.236 L 5519.339 1699.236 L 5519.339 1719.212 L 5471.895 1719.212 L 5471.895 1699.236 L 5471.895 1699.236 Q 5471.895 1696.739 5469.398 1696.739 L 5469.398 1696.739 L 5312.082 1696.739 L 5312.082 1696.739 Q 5309.585 1696.739 5309.585 1699.236 L 5309.585 1699.236 L 5309.585 1856.908 L 5309.585 1856.908 Q 5309.585 1859.405 5312.082 1859.405 L 5312.082 1859.405 L 5469.398 1859.405 L 5469.398 1859.405 Q 5471.895 1859.405 5471.895 1856.908 L 5471.895 1856.908 L 5471.895 1808.394 L 5413.749 1808.394 L 5413.749 1761.306 L 5519.339 1761.306 L 5519.339 1856.908 L 5519.339 1856.908 Q 5519.339 1877.598 5504.713 1892.045 L 5504.713 1892.045 L 5504.713 1892.045 Q 5490.088 1906.493 5469.398 1906.493 L 5469.398 1906.493 L 5312.082 1906.493 L 5312.082 1906.493 Q 5291.392 1906.493 5276.945 1892.045 L 5276.945 1892.045 L 5276.945 1892.045 Q 5262.497 1877.598 5262.497 1856.908 L 5262.497 1856.908 L 5262.497 1699.236 L 5262.497 1699.236 Q 5262.497 1678.546 5276.945 1664.098 L 5276.945 1664.098 L 5276.945 1664.098 Q 5291.392 1649.651 5312.082 1649.651 L 5312.082 1649.651 L 5469.398 1649.651 L 5469.398 1649.651 Q 5490.088 1649.651 5504.713 1664.098 L 5504.713 1664.098 L 5504.713 1664.098 Q 5519.339 1678.546 5519.339 1699.236 Z " fill="rgb(255,204,0)"/><path d=" M 7073.202 1199.264 L 7197.342 860.375 L 7297.225 860.375 L 7110.301 1374.059 L 7036.103 1374.059 L 6902.688 1009.486 L 6769.273 1374.059 L 6695.788 1374.059 L 6508.864 860.375 L 6608.747 860.375 L 6732.887 1199.264 L 6857.027 860.375 L 6949.062 860.375 L 7073.202 1199.264 L 7073.202 1199.264 Z  M 7425.884 860.375 L 7898.187 860.375 L 7898.187 954.551 L 7520.773 954.551 L 7520.773 1070.129 L 7824.702 1070.129 L 7824.702 1164.305 L 7520.773 1164.305 L 7520.773 1279.883 L 7898.187 1279.883 L 7898.187 1374.059 L 7425.884 1374.059 L 7425.884 860.375 L 7425.884 860.375 Z  M 8540.529 959.545 L 8540.529 959.545 L 8540.529 998.784 L 8445.641 998.784 L 8445.641 959.545 L 8445.641 959.545 Q 8445.641 954.551 8441.36 954.551 L 8441.36 954.551 L 8126.015 954.551 L 8126.015 954.551 Q 8121.021 954.551 8121.021 959.545 L 8121.021 959.545 L 8121.021 1065.135 L 8121.021 1065.135 Q 8121.021 1070.129 8126.015 1070.129 L 8126.015 1070.129 L 8441.36 1070.129 L 8441.36 1070.129 Q 8482.026 1070.129 8511.278 1099.024 L 8511.278 1099.024 L 8511.278 1099.024 Q 8540.529 1127.919 8540.529 1169.299 L 8540.529 1169.299 L 8540.529 1274.889 L 8540.529 1274.889 Q 8540.529 1316.269 8511.278 1345.164 L 8511.278 1345.164 L 8511.278 1345.164 Q 8482.026 1374.059 8441.36 1374.059 L 8441.36 1374.059 L 8126.015 1374.059 L 8126.015 1374.059 Q 8084.635 1374.059 8055.741 1345.164 L 8055.741 1345.164 L 8055.741 1345.164 Q 8026.846 1316.269 8026.846 1274.889 L 8026.846 1274.889 L 8026.846 1235.649 L 8121.021 1235.649 L 8121.021 1274.889 L 8121.021 1274.889 Q 8121.021 1279.883 8126.015 1279.883 L 8126.015 1279.883 L 8441.36 1279.883 L 8441.36 1279.883 Q 8445.641 1279.883 8445.641 1274.889 L 8445.641 1274.889 L 8445.641 1169.299 L 8445.641 1169.299 Q 8445.641 1164.305 8441.36 1164.305 L 8441.36 1164.305 L 8126.015 1164.305 L 8126.015 1164.305 Q 8084.635 1164.305 8055.741 1135.41 L 8055.741 1135.41 L 8055.741 1135.41 Q 8026.846 1106.515 8026.846 1065.135 L 8026.846 1065.135 L 8026.846 959.545 L 8026.846 959.545 Q 8026.846 918.165 8055.741 889.27 L 8055.741 889.27 L 8055.741 889.27 Q 8084.635 860.375 8126.015 860.375 L 8126.015 860.375 L 8441.36 860.375 L 8441.36 860.375 Q 8482.026 860.375 8511.278 889.27 L 8511.278 889.27 L 8511.278 889.27 Q 8540.529 918.165 8540.529 959.545 Z  M 8650.638 954.551 L 8650.638 860.375 L 9164.322 860.375 L 9164.322 954.551 L 8955.281 954.551 L 8955.281 1374.059 L 8860.392 1374.059 L 8860.392 954.551 L 8650.638 954.551 L 8650.638 954.551 Z  M 3492.401 860.375 L 3492.401 954.551 L 3079.314 954.551 L 3079.314 954.551 Q 3074.319 954.551 3074.319 959.545 L 3074.319 959.545 L 3074.319 1274.889 L 3074.319 1274.889 Q 3074.319 1279.883 3079.314 1279.883 L 3079.314 1279.883 L 3492.401 1279.883 L 3492.401 1374.059 L 3079.314 1374.059 L 3079.314 1374.059 Q 3037.934 1374.059 3009.039 1345.164 L 3009.039 1345.164 L 3009.039 1345.164 Q 2980.144 1316.269 2980.144 1274.889 L 2980.144 1274.889 L 2980.144 959.545 L 2980.144 959.545 Q 2980.144 918.165 3009.039 889.27 L 3009.039 889.27 L 3009.039 889.27 Q 3037.934 860.375 3079.314 860.375 L 3079.314 860.375 L 3492.401 860.375 L 3492.401 860.375 Z  M 4057.69 1070.129 L 4057.69 860.375 L 4151.866 860.375 L 4151.866 1374.059 L 4057.69 1374.059 L 4057.69 1164.305 L 3720.942 1164.305 L 3720.942 1374.059 L 3626.767 1374.059 L 3626.767 860.375 L 3720.942 860.375 L 3720.942 1070.129 L 4057.69 1070.129 L 4057.69 1070.129 Z  M 4393.249 860.375 L 4393.249 860.375 L 4707.88 860.375 L 4707.88 860.375 Q 4749.26 860.375 4778.512 889.27 L 4778.512 889.27 L 4778.512 889.27 Q 4807.763 918.165 4807.763 959.545 L 4807.763 959.545 L 4807.763 1374.059 L 4712.874 1374.059 L 4712.874 1201.404 L 4388.255 1201.404 L 4388.255 1374.059 L 4294.08 1374.059 L 4294.08 959.545 L 4294.08 959.545 Q 4294.08 918.165 4322.974 889.27 L 4322.974 889.27 L 4322.974 889.27 Q 4351.869 860.375 4393.249 860.375 Z  M 4388.255 959.545 L 4388.255 1107.229 L 4712.874 1107.229 L 4712.874 959.545 L 4712.874 959.545 Q 4712.874 954.551 4707.88 954.551 L 4707.88 954.551 L 4393.249 954.551 L 4393.249 954.551 Q 4388.255 954.551 4388.255 959.545 L 4388.255 959.545 L 4388.255 959.545 Z  M 5046.293 860.375 L 5046.293 860.375 L 5361.638 860.375 L 5361.638 860.375 Q 5402.304 860.375 5431.556 889.27 L 5431.556 889.27 L 5431.556 889.27 Q 5460.807 918.165 5460.807 959.545 L 5460.807 959.545 L 5460.807 1274.889 L 5460.807 1274.889 Q 5460.807 1316.269 5431.556 1345.164 L 5431.556 1345.164 L 5431.556 1345.164 Q 5402.304 1374.059 5361.638 1374.059 L 5361.638 1374.059 L 5046.293 1374.059 L 5046.293 1374.059 Q 5004.913 1374.059 4976.018 1345.164 L 4976.018 1345.164 L 4976.018 1345.164 Q 4947.124 1316.269 4947.124 1274.889 L 4947.124 1274.889 L 4947.124 959.545 L 4947.124 959.545 Q 4947.124 918.165 4976.018 889.27 L 4976.018 889.27 L 4976.018 889.27 Q 5004.913 860.375 5046.293 860.375 Z  M 5046.293 1279.883 L 5046.293 1279.883 L 5361.638 1279.883 L 5361.638 1279.883 Q 5365.918 1279.883 5365.918 1274.889 L 5365.918 1274.889 L 5365.918 959.545 L 5365.918 959.545 Q 5365.918 954.551 5361.638 954.551 L 5361.638 954.551 L 5046.293 954.551 L 5046.293 954.551 Q 5041.299 954.551 5041.299 959.545 L 5041.299 959.545 L 5041.299 1274.889 L 5041.299 1274.889 Q 5041.299 1279.883 5046.293 1279.883 Z  M 6108.857 959.545 L 6108.857 959.545 L 6108.857 998.784 L 6013.968 998.784 L 6013.968 959.545 L 6013.968 959.545 Q 6013.968 954.551 6009.687 954.551 L 6009.687 954.551 L 5694.343 954.551 L 5694.343 954.551 Q 5689.349 954.551 5689.349 959.545 L 5689.349 959.545 L 5689.349 1065.135 L 5689.349 1065.135 Q 5689.349 1070.129 5694.343 1070.129 L 5694.343 1070.129 L 6009.687 1070.129 L 6009.687 1070.129 Q 6050.354 1070.129 6079.605 1099.024 L 6079.605 1099.024 L 6079.605 1099.024 Q 6108.857 1127.919 6108.857 1169.299 L 6108.857 1169.299 L 6108.857 1274.889 L 6108.857 1274.889 Q 6108.857 1316.269 6079.605 1345.164 L 6079.605 1345.164 L 6079.605 1345.164 Q 6050.354 1374.059 6009.687 1374.059 L 6009.687 1374.059 L 5694.343 1374.059 L 5694.343 1374.059 Q 5652.963 1374.059 5624.068 1345.164 L 5624.068 1345.164 L 5624.068 1345.164 Q 5595.173 1316.269 5595.173 1274.889 L 5595.173 1274.889 L 5595.173 1235.649 L 5689.349 1235.649 L 5689.349 1274.889 L 5689.349 1274.889 Q 5689.349 1279.883 5694.343 1279.883 L 5694.343 1279.883 L 6009.687 1279.883 L 6009.687 1279.883 Q 6013.968 1279.883 6013.968 1274.889 L 6013.968 1274.889 L 6013.968 1169.299 L 6013.968 1169.299 Q 6013.968 1164.305 6009.687 1164.305 L 6009.687 1164.305 L 5694.343 1164.305 L 5694.343 1164.305 Q 5652.963 1164.305 5624.068 1135.41 L 5624.068 1135.41 L 5624.068 1135.41 Q 5595.173 1106.515 5595.173 1065.135 L 5595.173 1065.135 L 5595.173 959.545 L 5595.173 959.545 Q 5595.173 918.165 5624.068 889.27 L 5624.068 889.27 L 5624.068 889.27 Q 5652.963 860.375 5694.343 860.375 L 5694.343 860.375 L 6009.687 860.375 L 6009.687 860.375 Q 6050.354 860.375 6079.605 889.27 L 6079.605 889.27 L 6079.605 889.27 Q 6108.857 918.165 6108.857 959.545 Z " fill="rgb(255,204,0)"/></g><g><path d=" M 2775.632 2020.439 L 1742.147 2623.555 L 708.661 2020.439 L 708.661 814.207 L 1742.147 211.091 L 2775.632 814.207 L 2775.632 2020.439 Z " fill="rgb(46,46,46)"/><path d=" M 2172.766 1467.582 L 2086.642 1517.842 L 1656.023 1266.544 L 1483.775 1367.063 L 2086.642 1718.881 L 2345.013 1568.102 M 2517.261 1467.582 L 2603.384 1417.323 L 2603.384 914.726 L 2431.137 814.207 L 2431.137 1316.803 Q 2378.624 1347.449 2345.013 1367.063 M 1483.775 1166.024 L 1397.652 1115.765 L 1397.652 613.168 L 1225.404 713.687 L 1225.404 1216.284 L 1311.528 1266.544" fill-rule="evenodd" fill="rgb(255,102,0)"/><path d=" M 1139.28 1568.102 L 1053.157 1618.362 L 1053.157 2020.439 L 880.909 1919.92 L 880.909 1517.842 L 967.033 1467.582 M 1139.28 1367.063 L 1742.147 1015.245 L 2000.518 1166.025 L 2000.518 1166.025 L 1828.27 1266.544 L 1742.147 1216.284 L 1311.528 1467.582 M 2000.518 1367.063 L 2431.137 1618.362 L 2431.137 2020.439 L 2603.384 1919.92 L 2603.384 1517.842 L 2172.766 1266.544 L 2000.518 1367.063 Z " fill-rule="evenodd" fill="rgb(255,204,0)"/><path d=" M 1569.899 1417.323 L 1397.652 1517.842 L 1053.157 1316.803 L 1053.157 814.207 L 880.909 914.726 L 880.909 1417.323 L 1397.652 1718.881 L 1742.147 1517.842 L 1569.899 1417.323 L 1569.899 1417.323 Z  M 1914.394 1417.323 L 2258.889 1216.284 L 2258.889 713.687 L 2086.642 613.168 L 2086.642 1115.765 L 1741.66 1316.968 L 1914.394 1417.323 Z " fill="rgb(68,170,0)"/></g></g></g></g></svg>